<svg xmlns="http://www.w3.org/2000/svg" viewBox="0 0 64 64" role="img" aria-label="ResearchGate">
  <defs>
    <linearGradient id="rg" x1="0" y1="0" x2="1" y2="1">
      <stop offset="0" stop-color="#00CCBB"/>
      <stop offset="1" stop-color="#00A79D"/>
    </linearGradient>
  </defs>
  <rect x="2" y="2" width="60" height="60" rx="16" fill="url(#rg)"/>
  <path fill="#fff" d="M27.7 22.4c0-3.3 2.6-5.9 5.9-5.9 3.2 0 5.8 2.6 5.8 5.9 0 3.2-2.6 5.8-5.8 5.8-3.3 0-5.9-2.6-5.9-5.8zm22.6 24.8c-2.4 0-4.2-1.8-4.2-4.4v-7.1c0-3.3-2-5.6-5.1-5.6-2.3 0-4.1 1-5 2.7v10.1c0 2.6-1.8 4.4-4.2 4.4-2.4 0-4.2-1.8-4.2-4.4V20.8c0-2.5 1.7-4.3 4.1-4.3 2.4 0 4.1 1.8 4.1 4.3v6.7c1.8-2 4.5-3.1 7.6-3.1 6.8 0 11 4.4 11 11.5v7c0 2.6-1.8 4.4-4.1 4.4z"/>
</svg>
